<?xml version="1.0" encoding="UTF-8"?>
<svg width="119px" height="32px" viewBox="0 0 119 32" version="1.1" xmlns="http://www.w3.org/2000/svg" xmlns:xlink="http://www.w3.org/1999/xlink">
    <!-- Generator: Sketch 39.1 (31720) - http://www.bohemiancoding.com/sketch -->
    <title>vusion-单色.svg</title>
    <desc>Created with Sketch.</desc>
    <defs></defs>
    <g id="Page-1" stroke="none" stroke-width="1" fill="none" fill-rule="evenodd">
        <path d="M118.738245,25.8267114 C118.738382,25.9006098 118.709122,25.9715284 118.656916,26.0238309 C118.60471,26.0761333 118.533846,26.1055247 118.459948,26.1055246 L116.232541,26.1055246 C116.158642,26.1055247 116.087778,26.0761333 116.035573,26.0238309 C115.983367,25.9715284 115.954107,25.9006098 115.954244,25.8267114 L115.954244,16.6878374 C115.921716,16.6129709 115.887122,16.3986979 115.85098,16.326413 C115.534615,15.2645779 114.558568,14.5364789 113.450606,14.5358133 L112.894012,14.5358133 C112.007484,14.5363608 111.157483,14.8890581 110.531,15.5163157 C109.904517,16.1435733 109.55287,16.9940095 109.553418,17.8805379 L109.553418,25.8267114 C109.553418,25.9804943 109.428904,26.1052398 109.275121,26.1055246 L107.047714,26.1055246 C106.973816,26.1055247 106.902952,26.0761333 106.850746,26.0238309 C106.79854,25.9715284 106.76928,25.9006098 106.769417,25.8267114 L106.769417,12.5867031 C106.76928,12.5128048 106.79854,12.4418862 106.850746,12.3895837 C106.902952,12.3372812 106.973816,12.3078899 107.047714,12.30789 L109.275121,12.30789 C109.428904,12.3081748 109.553418,12.4329203 109.553418,12.5867031 L109.553418,14.4330655 C110.412141,13.0261045 111.941697,12.1680034 113.590012,12.1684835 L114.007716,12.1684835 C116.622158,12.1713335 118.739671,14.2923138 118.738245,16.9067573 C118.738245,16.9413508 118.735147,16.9749116 118.73463,17.0100214 C118.736601,17.0223267 118.737808,17.0347421 118.738245,17.0471965 L118.738245,25.8267114 L118.738245,25.8267114 Z M97.0233504,26.1055246 C94.2031801,26.1097026 91.6583781,24.4140883 90.5762494,21.8097888 C89.4941207,19.2054894 90.0879208,16.205735 92.0806057,14.2100936 C94.0732907,12.2144521 97.0721614,11.6162053 99.6780623,12.6944718 C102.283963,13.7727382 103.983349,16.3150235 103.983352,19.1351969 C103.984859,20.9825154 103.252388,22.754756 101.947105,24.0619759 C100.641822,25.3691957 98.8706691,26.1042926 97.0233504,26.1055246 L97.0233504,26.1055246 Z M97.0233504,14.9560982 C95.3312482,14.9535914 93.804367,15.97096 93.1550898,17.5335396 C92.5058126,19.0961193 92.8620926,20.8959719 94.0577036,22.0933568 C95.2533146,23.2907417 97.052637,23.6496897 98.6161776,23.0027299 C100.179718,22.35577 101.199349,20.8303989 101.199351,19.1382948 C101.200447,18.0298451 100.761027,16.9663893 99.9778152,16.1820157 C99.1946037,15.3976422 98.1318006,14.9566456 97.0233504,14.9560982 L97.0233504,14.9560982 Z M86.2735562,9.7774029 C86.1715365,9.8798119 86.0329342,9.93737751 85.888381,9.93737751 C85.7438279,9.93737751 85.6052256,9.8798119 85.5032059,9.7774029 L83.9423688,8.21501686 L83.9423688,8.21501686 C83.7472481,7.99959663 83.7551939,7.66905015 83.96044,7.46325412 L83.96044,7.46325412 L85.5021732,5.91997194 L85.5021732,5.91997194 C85.7073328,5.71466507 86.0375803,5.70671004 86.252387,5.90190072 L86.252387,5.90190072 L86.2714909,5.92100458 L86.2714909,5.92100458 L87.8132241,7.46428676 L87.8132241,7.46428676 C87.9161372,7.56687743 87.9739804,7.7062139 87.9739804,7.85152718 C87.9739804,7.99684047 87.9161372,8.13617694 87.8132241,8.23876761 L86.2735562,9.7774029 Z M77.7682075,18.0509237 C79.998196,18.5930603 81.711864,19.3835471 81.711864,21.923328 C81.711864,24.9778804 78.9707181,26.2438985 76.2832695,26.2438985 C74.1802958,26.2438985 72.5337495,25.7353227 71.2259095,24.1466043 C71.2109362,24.1280168 71.194414,24.1109782 71.1809896,24.0908417 C71.0985778,23.9528925 71.1144227,23.7775562 71.22023,23.6566161 C71.2362359,23.6416428 71.2548235,23.6282185 71.2718621,23.6132452 L72.6530196,22.4773399 C72.6741887,22.459785 72.6958742,22.4437791 72.7144617,22.4257079 C72.7730775,22.3622074 72.8575395,22.3290376 72.943702,22.335681 C73.0298645,22.3423243 73.1082435,22.3880496 73.1564321,22.459785 C73.1699973,22.4753209 73.1850414,22.4895004 73.201352,22.5021233 C74.0069539,23.3480411 75.1145293,23.8408537 76.2822369,23.8729544 C77.5973053,23.8729544 78.9268308,23.2316843 78.9268308,22.0611855 C78.9268308,20.5194523 76.8233408,20.3056956 75.7080884,20.0475353 C73.5064975,19.5053987 71.5491262,18.808366 71.5491262,16.2086919 C71.5491262,13.3823531 74.1642899,12.0264953 76.709234,12.0264953 C78.4074123,12.0264953 80.1561901,12.5846378 81.1655968,13.9885135 C81.1924455,14.0256885 81.2172288,14.0659615 81.2445938,14.102104 C81.3168787,14.1945254 81.3034544,14.2838488 81.1506235,14.3979557 L81.1026057,14.4340981 L79.5918517,15.5761992 C79.577911,15.5865256 79.5644867,15.5978847 79.5510624,15.6071784 C79.4296383,15.6845711 79.2708977,15.668098 79.1679525,15.5674218 C79.1586288,15.5543977 79.1476998,15.5426014 79.1354243,15.532312 C78.4789367,14.8030483 77.5417345,14.3896044 76.5605336,14.3964067 C75.359572,14.3964067 74.3331267,14.9586798 74.3331267,15.9293625 C74.3346757,17.5583539 76.6245574,17.793796 77.7682075,18.0509237 L77.7682075,18.0509237 Z M68.0706745,25.966118 L65.8432676,25.966118 C65.7693692,25.9661181 65.6985049,25.9367268 65.6462993,25.8844243 C65.5940937,25.8321218 65.5648337,25.7612032 65.5649708,25.6873049 L65.5649708,23.8409425 C64.7060309,25.247678 63.1766128,26.1057015 61.5283766,26.1055246 L61.1106733,26.1055246 C59.8546474,26.1048401 58.6503522,25.6051586 57.7627889,24.7164333 C56.8752255,23.827708 56.3771201,22.62276 56.3780789,21.3667344 L56.3780789,12.4472966 C56.3779418,12.3733982 56.4072018,12.3024797 56.4594074,12.2501772 C56.5116131,12.1978747 56.5824773,12.1684833 56.6563757,12.1684835 L58.8832663,12.1684835 C58.9571648,12.1684833 59.028029,12.1978747 59.0802347,12.2501772 C59.1324403,12.3024797 59.1617002,12.3733982 59.1615631,12.4472966 L59.1615631,21.583589 C59.1946076,21.6589718 59.2292011,21.8727285 59.2648272,21.9450134 C59.5808028,23.0069727 60.5567153,23.7353377 61.6646852,23.7361295 L62.2217951,23.7361295 C64.0677768,23.7347042 65.563245,22.2373868 65.5623892,20.3914048 L65.5623892,12.4472966 C65.5622521,12.3733982 65.591512,12.3024797 65.6437177,12.2501772 C65.6959233,12.1978747 65.7667876,12.1684833 65.840686,12.1684835 L68.0680929,12.1684835 C68.2218755,12.1687682 68.34639,12.2935137 68.3463897,12.4472966 L68.3463897,25.6873049 C68.3463992,25.8400874 68.2234476,25.9644204 68.0706745,25.966118 L68.0706745,25.966118 Z M47.6088904,26.0662842 C47.5667888,26.0916465 47.5186335,26.1052013 47.4694839,26.1055246 L47.4023622,26.1055246 L45.2756378,26.1019103 C45.2645502,26.1039061 45.2533352,26.1051138 45.2420769,26.1055246 C45.2125081,26.1051641 45.1832011,26.0999307 45.1553351,26.0900349 L37.1466867,6.26332512 C37.0911163,6.14721364 37.0516829,6.02404919 37.029482,5.89725383 C37.0795826,5.79273893 37.194073,5.73538749 37.3077788,5.75784728 L37.3160399,5.75784728 L37.3160399,5.75784728 L39.8129662,5.75784728 C39.8635643,5.75797116 39.9131137,5.77228148 39.955987,5.79915292 L46.3748843,21.6925327 L52.804108,5.77488586 C52.8337738,5.76347299 52.8652608,5.75752544 52.8970457,5.75733096 L55.40688,5.75733096 C55.5100884,5.75866823 55.6040454,5.81712149 55.6508545,5.90911435 C55.6976636,6.00110722 55.6896055,6.11146917 55.6299304,6.19568712 L47.6088904,26.0662842 Z M29.4519613,19.9566629 C29.2667471,20.1430391 29.0148442,20.2478425 28.7520888,20.2478425 C28.4893333,20.2478425 28.2374305,20.1430391 28.0522162,19.9566629 L25.2171,17.1132855 L25.2171,17.1132855 C24.8629845,16.7211984 24.8775007,16.1205906 25.2501445,15.7460687 L25.2501445,15.7460687 L28.050151,12.9372848 L28.050151,12.9372848 C28.4226268,12.5625967 29.0240731,12.5475776 29.4147862,12.9032076 L29.4147862,12.9032076 L29.4493797,12.9383174 L29.4493797,12.9383174 L32.2493861,15.7471013 L32.2493861,15.7471013 C32.6361553,16.1353449 32.6361553,16.7632497 32.2493861,17.1514933 L29.4519613,19.9566629 Z M25.8124176,21.9228116 C26.1986211,22.3112887 26.1986211,22.9387265 25.8124176,23.3272036 L17.9726061,31.1917985 L17.9726061,31.1917985 C17.4535604,31.7130515 16.7482572,32.0060747 16.0126532,32.0060747 C15.2770493,32.0060747 14.5717461,31.7130515 14.0527004,31.1917985 L1.31300666,18.4123481 L1.31300666,18.4123481 C0.231297934,17.3247521 0.231297934,15.5676466 1.31300666,14.4800506 L1.31300666,14.4800506 L15.4524454,0.296208308 L15.4524454,0.296208308 C15.8248998,-0.0774615863 16.4254082,-0.092019366 16.8155317,0.263163791 L16.8155317,0.263163791 L16.8501252,0.29827359 L16.8501252,0.29827359 L19.3346598,2.79106929 L19.3697696,2.82617909 C19.7565387,3.21442266 19.7565387,3.84232747 19.3697696,4.23057104 L7.88989806,15.7445197 L7.88989806,15.7445197 C7.50369455,16.1329968 7.50369455,16.7604346 7.88989806,17.1489117 L7.88989806,17.1489117 L15.3099409,24.5916727 C15.6823674,24.9652306 16.2826683,24.9800108 16.6730272,24.6252335 L16.6730272,24.6252335 L21.887865,19.3943898 L21.887865,19.3943898 C22.0732151,19.2082686 22.3250671,19.1036418 22.5877375,19.1036418 C22.850408,19.1036418 23.1022599,19.2082686 23.28761,19.3943898 L23.28761,19.3943898 L25.8077707,21.9243606 L25.8077707,21.9243606 L25.8124176,21.9228116 Z M84.7762265,12.1684835 L87.0031171,12.1684835 C87.1571014,12.1684835 87.2819302,12.2933123 87.2819302,12.4472966 L87.2819302,25.8267114 C87.2819302,25.9806957 87.1571014,26.1055246 87.0031171,26.1055246 L84.7762265,26.1055246 C84.7023281,26.1055247 84.6314638,26.0761333 84.5792582,26.0238309 C84.5270526,25.9715284 84.4977926,25.9006098 84.4979297,25.8267114 L84.4979297,12.4472966 C84.4976415,12.2941991 84.6210678,12.1696193 84.7741612,12.1684835 L84.7762265,12.1684835 Z" id="vusion-单色.svg" fill="#FFFFFF"></path>
    </g>
</svg>